# ProBuilder 6.0.8
# https://unity3d.com/unity/features/worldbuilding/probuilder
# 12/2/2025 10:05:42 AM

mtllib ./Cone.mtl
o Cone

g Cone
v -0.5 -0.25 0
v -0.4903926 -0.25 0.09754516
v 0 0.25 0
v 0 -0.25 0
v -0.4619398 -0.25 0.1913417
v -0.4157348 -0.25 0.2777851
v -0.3535534 -0.25 0.3535534
v -0.2777851 -0.25 0.4157348
v -0.1913417 -0.25 0.4619398
v -0.09754518 -0.25 0.4903926
v 2.185569E-08 -0.25 0.5
v 0.09754516 -0.25 0.4903926
v 0.1913417 -0.25 0.4619398
v 0.2777851 -0.25 0.4157348
v 0.3535534 -0.25 0.3535534
v 0.4157348 -0.25 0.2777851
v 0.4619398 -0.25 0.1913417
v 0.4903927 -0.25 0.09754515
v 0.5 -0.25 -4.371139E-08
v 0.4903927 -0.25 -0.09754512
v 0.4619398 -0.25 -0.1913417
v 0.4157348 -0.25 -0.2777852
v 0.3535534 -0.25 -0.3535534
v 0.2777852 -0.25 -0.4157347
v 0.1913418 -0.25 -0.4619398
v 0.09754519 -0.25 -0.4903926
v -5.96244E-09 -0.25 -0.5
v -0.09754521 -0.25 -0.4903926
v -0.1913418 -0.25 -0.4619397
v -0.277785 -0.25 -0.4157349
v -0.3535533 -0.25 -0.3535534
v -0.4157348 -0.25 -0.2777852
v -0.4619398 -0.25 -0.1913417
v -0.4903927 -0.25 -0.09754512

vt 0 0
vt 0.1960343 0
vt 0.09801728 1.113729
vt -0.5 0
vt -0.4903926 0.09754516
vt -0.4619398 0.1913417
vt -0.4157348 0.2777851
vt -0.3535534 0.3535534
vt -0.2777851 0.4157348
vt -0.1913417 0.4619398
vt -0.09754518 0.4903926
vt 2.185569E-08 0.5
vt 0.09754516 0.4903926
vt 0.1913417 0.4619398
vt 0.2777851 0.4157348
vt 0.3535534 0.3535534
vt 0.4157348 0.2777851
vt 0.4619398 0.1913417
vt 0.4903927 0.09754515
vt 0.5 -4.371139E-08
vt 0.4903927 -0.09754512
vt 0.4619398 -0.1913417
vt 0.4157348 -0.2777852
vt 0.3535534 -0.3535534
vt 0.2777852 -0.4157347
vt 0.1913418 -0.4619398
vt 0.09754519 -0.4903926
vt -5.96244E-09 -0.5
vt -0.09754521 -0.4903926
vt -0.1913418 -0.4619397
vt -0.277785 -0.4157349
vt -0.3535533 -0.3535534
vt -0.4157348 -0.2777852
vt -0.4619398 -0.1913417
vt -0.4903927 -0.09754512

vn -0.7053981 0.7053981 0.06947576
vn 0 -1 0
vn -0.6782901 0.7053981 0.205757
vn -0.6251158 0.7053982 0.3341313
vn -0.5479185 0.7053981 0.4496651
vn -0.4496651 0.7053981 0.5479185
vn -0.3341313 0.7053981 0.6251158
vn -0.2057571 0.7053981 0.6782901
vn -0.06947573 0.7053981 0.7053981
vn 0.06947578 0.7053981 0.7053981
vn 0.2057569 0.7053981 0.6782902
vn 0.3341313 0.7053982 0.6251158
vn 0.4496652 0.7053981 0.5479185
vn 0.5479185 0.7053981 0.4496652
vn 0.6251158 0.7053982 0.3341313
vn 0.6782901 0.7053981 0.2057572
vn 0.7053982 0.7053982 0.06947552
vn 0.7053982 0.7053982 -0.06947561
vn 0.6782901 0.7053981 -0.2057572
vn 0.6251158 0.7053982 -0.3341314
vn 0.5479186 0.7053981 -0.4496651
vn 0.4496652 0.7053981 -0.5479184
vn 0.3341316 0.7053982 -0.6251156
vn 0.205757 0.7053981 -0.6782901
vn 0.06947573 0.7053981 -0.7053981
vn -0.06947573 0.7053981 -0.7053981
vn -0.2057571 0.7053981 -0.6782901
vn -0.3341313 0.7053981 -0.6251158
vn -0.449665 0.7053981 -0.5479186
vn -0.5479184 0.7053981 -0.4496653
vn -0.6251158 0.7053982 -0.3341314
vn -0.6782901 0.7053981 -0.205757
vn -0.7053982 0.7053982 -0.06947558

usemtl ProBuilderDefault
f 1/1/1 2/2/1 3/3/1
f 4/1/2 2/5/2 1/4/2
f 2/1/3 5/2/3 3/3/3
f 4/1/2 5/6/2 2/5/2
f 5/1/4 6/2/4 3/3/4
f 4/1/2 6/7/2 5/6/2
f 6/1/5 7/2/5 3/3/5
f 4/1/2 7/8/2 6/7/2
f 7/1/6 8/2/6 3/3/6
f 4/1/2 8/9/2 7/8/2
f 8/1/7 9/2/7 3/3/7
f 4/1/2 9/10/2 8/9/2
f 9/1/8 10/2/8 3/3/8
f 4/1/2 10/11/2 9/10/2
f 10/1/9 11/2/9 3/3/9
f 4/1/2 11/12/2 10/11/2
f 11/1/10 12/2/10 3/3/10
f 4/1/2 12/13/2 11/12/2
f 12/1/11 13/2/11 3/3/11
f 4/1/2 13/14/2 12/13/2
f 13/1/12 14/2/12 3/3/12
f 4/1/2 14/15/2 13/14/2
f 14/1/13 15/2/13 3/3/13
f 4/1/2 15/16/2 14/15/2
f 15/1/14 16/2/14 3/3/14
f 4/1/2 16/17/2 15/16/2
f 16/1/15 17/2/15 3/3/15
f 4/1/2 17/18/2 16/17/2
f 17/1/16 18/2/16 3/3/16
f 4/1/2 18/19/2 17/18/2
f 18/1/17 19/2/17 3/3/17
f 4/1/2 19/20/2 18/19/2
f 19/1/18 20/2/18 3/3/18
f 4/1/2 20/21/2 19/20/2
f 20/1/19 21/2/19 3/3/19
f 4/1/2 21/22/2 20/21/2
f 21/1/20 22/2/20 3/3/20
f 4/1/2 22/23/2 21/22/2
f 22/1/21 23/2/21 3/3/21
f 4/1/2 23/24/2 22/23/2
f 23/1/22 24/2/22 3/3/22
f 4/1/2 24/25/2 23/24/2
f 24/1/23 25/2/23 3/3/23
f 4/1/2 25/26/2 24/25/2
f 25/1/24 26/2/24 3/3/24
f 4/1/2 26/27/2 25/26/2
f 26/1/25 27/2/25 3/3/25
f 4/1/2 27/28/2 26/27/2
f 27/1/26 28/2/26 3/3/26
f 4/1/2 28/29/2 27/28/2
f 28/1/27 29/2/27 3/3/27
f 4/1/2 29/30/2 28/29/2
f 29/1/28 30/2/28 3/3/28
f 4/1/2 30/31/2 29/30/2
f 30/1/29 31/2/29 3/3/29
f 4/1/2 31/32/2 30/31/2
f 31/1/30 32/2/30 3/3/30
f 4/1/2 32/33/2 31/32/2
f 32/1/31 33/2/31 3/3/31
f 4/1/2 33/34/2 32/33/2
f 33/1/32 34/2/32 3/3/32
f 4/1/2 34/35/2 33/34/2
f 34/1/33 1/2/33 3/3/33
f 4/1/2 1/4/2 34/35/2

