{
	"asset":{
		"generator":"Khronos glTF Blender I/O v4.1.63",
		"version":"2.0"
	},
	"extensionsUsed":[
		"KHR_materials_specular"
	],
	"scene":0,
	"scenes":[
		{
			"name":"Scene",
			"nodes":[
				0
			]
		}
	],
	"nodes":[
		{
			"mesh":0,
			"name":"male_01_a"
		}
	],
	"materials":[
		{
			"doubleSided":true,
			"extensions":{
				"KHR_materials_specular":{
					"specularFactor":0
				}
			},
			"name":"palette",
			"pbrMetallicRoughness":{
				"baseColorTexture":{
					"index":0
				},
				"metallicFactor":0
			}
		}
	],
	"meshes":[
		{
			"name":"male_01_a",
			"primitives":[
				{
					"attributes":{
						"POSITION":0,
						"NORMAL":1,
						"TEXCOORD_0":2
					},
					"indices":3,
					"material":0
				}
			]
		}
	],
	"textures":[
		{
			"sampler":0,
			"source":0
		}
	],
	"images":[
		{
			"mimeType":"image/png",
			"name":"palette_32",
			"uri":"palette_32.png"
		}
	],
	"accessors":[
		{
			"bufferView":0,
			"componentType":5126,
			"count":2212,
			"max":[
				0.7289124131202698,
				1.8940563201904297,
				0.15890052914619446
			],
			"min":[
				-0.7289124131202698,
				0.008140623569488525,
				-0.16797225177288055
			],
			"type":"VEC3"
		},
		{
			"bufferView":1,
			"componentType":5126,
			"count":2212,
			"type":"VEC3"
		},
		{
			"bufferView":2,
			"componentType":5126,
			"count":2212,
			"type":"VEC2"
		},
		{
			"bufferView":3,
			"componentType":5123,
			"count":3432,
			"type":"SCALAR"
		}
	],
	"bufferViews":[
		{
			"buffer":0,
			"byteLength":26544,
			"byteOffset":0,
			"target":34962
		},
		{
			"buffer":0,
			"byteLength":26544,
			"byteOffset":26544,
			"target":34962
		},
		{
			"buffer":0,
			"byteLength":17696,
			"byteOffset":53088,
			"target":34962
		},
		{
			"buffer":0,
			"byteLength":6864,
			"byteOffset":70784,
			"target":34963
		}
	],
	"samplers":[
		{
			"magFilter":9729,
			"minFilter":9987
		}
	],
	"buffers":[
		{
			"byteLength":77648,
			"uri":"male_01_a.bin"
		}
	]
}
